<?xml version="1.0" encoding="UTF-8"?>
<svg id="Capa_2" data-name="Capa 2" xmlns="http://www.w3.org/2000/svg" viewBox="0 0 310.63 353.63">
  <defs>
    <style>
      .cls-1 {
        fill: #fff;
        stroke-width: 0px;
      }
    </style>
  </defs>
  <g id="Capa_1-2" data-name="Capa 1">
    <path class="cls-1" d="m305.12,282.4c-13.51,48.43-40.99,69.18-91.19,71-59.3,2.14-115.03-10.88-164.77-44.95C18.15,287.2,3.09,257.71.85,220.37c-1.93-32-.77-63.53,5.65-95.01C16.92,74.24,45.15,39.34,95.08,21.47,132.68,8.01,170.67-.81,210.79.06c51.91,1.13,83.81,26.13,96.6,76.78,3.19,12.63,6.21,175.18-2.26,205.57ZM173.96,104.96c1.53-24.38,1.56-24.48-21.4-30.12-6.15-1.51-12.48-3.1-18.75-3.22-34.37-.7-57.32,8.81-67.74,41.19-9.77,30.35-9.45,61.37-.26,92.01,6.76,22.54,21.88,37.61,45.13,40.48,14.91,1.84,30.78.05,45.64-2.98,20.08-4.09,22.06-8.81,18.77-28.37-10.74,3.21-21.39,7.22-32.4,9.52-31.15,6.51-49.15-6.64-53.35-38.13-.27-1.99-.95-3.93-1.1-5.91-1.65-22.47-2.58-44.89,6.74-66.22,4.67-10.69,12.89-16.57,24.46-18.41,19.01-3.04,36.29,2.81,54.28,10.16Zm32.51,20.8c0,4.44,0,8.06,0,11.69.05,27.53-.11,55.07.23,82.6.22,17.66,8.43,25.63,26.07,26.37,3.02.13,6.04.08,9.06,0,18.01-.5,18.99-1.71,16.45-20.61-2.22.19-4.48.4-6.73.56-16.61,1.22-19.2-1.27-19.18-18.28.02-19.14,0-38.28,0-57.42,0-8.25,0-16.5,0-25.74h26.09v-17.84h-25.99v-24.9c-.88-.79-1.76-1.58-2.64-2.37-3.71,2.63-8.01,4.72-11.02,8-6.67,7.26-11.84,16.11-19.26,22.38-5.25,4.43-8.54,7.64-5.7,14.68,3.72.26,7.36.52,12.63.89Zm71.06,133.71c-2.6.5-2.98.47-3.24.63-49.19,30.67-101.33,42.5-158.18,25.01-2.16-.67-5.04.99-7.58,1.56,1.16,2.9,1.5,7.27,3.62,8.43,7.87,4.31,16,8.71,24.59,11.01,31.41,8.42,61.77,2.96,91.11-9.34,19-7.96,36.09-18.83,49.68-37.31Z"/>
  </g>
</svg>