<?xml version="1.0" encoding="UTF-8"?>
<svg id="Capa_2" data-name="Capa 2" xmlns="http://www.w3.org/2000/svg" viewBox="0 0 432.92 432.9">
  <defs>
    <style>
      .cls-1 {
        fill: #fff;
        stroke-width: 0px;
      }
    </style>
  </defs>
  <g id="Capa_1-2" data-name="Capa 1">
    <path id="Path_2520" data-name="Path 2520" class="cls-1" d="m368.87,368.88h-64.15v-100.46c0-23.96-.43-54.78-33.37-54.78s-38.53,26.09-38.53,53.06v102.19h-64.13v-206.59h61.59v28.22h.85c12.57-21.46,35.9-34.28,60.76-33.37,65.02,0,76.99,42.77,76.99,98.39l-.02,113.34ZM96.32,134.04c-20.57,0-37.23-16.66-37.23-37.23s16.66-37.23,37.23-37.23,37.23,16.66,37.23,37.23c0,20.57-16.66,37.23-37.23,37.23h0Zm32.06,234.84h-64.21v-206.59h64.21v206.59ZM400.85.02H31.94C14.51-.17.21,13.81,0,31.23v370.43c.21,17.45,14.51,31.42,31.94,31.23h368.92c17.47.21,31.83-13.76,32.06-31.23V31.21C432.66,13.74,418.3-.23,400.85,0v.02Z"/>
  </g>
</svg>