<?xml version="1.0" encoding="UTF-8"?>
<svg id="Capa_2" data-name="Capa 2" xmlns="http://www.w3.org/2000/svg" viewBox="0 0 127.73 116.95">
  <defs>
    <style>
      .cls-1 {
        fill: #1d1d1b;
        stroke-width: 0px;
      }
    </style>
  </defs>
  <g id="Capa_1-2" data-name="Capa 1">
    <path class="cls-1" d="m116.76,58.47c0-10.51,4.45-19.64,10.97-24.16-.02-.03-.03-.06-.05-.1-8.1,1.02-18.29-2.54-26.42-9.98-8.12-7.44-12.01-16.77-10.9-24.19-.04-.01-.07-.03-.11-.04-4.94,5.97-14.9,10.05-26.39,10.05S42.42,5.97,37.48,0c-.04.01-.08.03-.11.04,1.11,7.42-2.78,16.75-10.9,24.19C18.34,31.67,8.15,35.23.05,34.21c-.02.03-.02.06-.05.1,6.53,4.52,10.97,13.65,10.97,24.16s-4.45,19.64-10.97,24.16c.02.03.03.07.05.1,8.11-1.02,18.3,2.55,26.42,9.98,8.12,7.44,12.01,16.77,10.9,24.18.04.02.08.03.11.05,4.94-5.97,14.9-10.05,26.38-10.05s21.45,4.08,26.38,10.05c.04-.01.08-.03.11-.05-1.11-7.41,2.79-16.74,10.9-24.18,8.12-7.43,18.32-11,26.42-9.98.02-.03.04-.06.05-.1-6.52-4.52-10.97-13.65-10.97-24.16Zm-52.89,40.93c-24.68,0-44.7-18.33-44.7-40.93,0-8.02,2.52-15.5,6.88-21.81.66-.59,1.41-1.18,2.24-1.76,4.87-3.42,9.78-4.34,12.76-4.87,5.09-.9,9.06-.55,12.24-.24,4.52.44,9.42.91,15,3.64,1.85.9,8.06,4.41,12.78,11.14,4.2,6,4.37,12.54,2.12,19.24-1.32,3.92-3.51,7.37-6.85,10.08-3.99,3.23-8.82,4.55-14.09,4.16-6.71-.49-12.52-2.91-17.28-7.34-1.12-1.04-2.78-2.99-3.58-5.9-1.72-6.23,2.53-11.31,2.73-11.53.57-.66,3.72-4.3,8.91-4.75,1.41-.12,5.33-.45,7.2,1.99,1.22,1.6,1.39,4.15.11,5.68-1.81,2.16-5.12.65-7.53,3.05-1.21,1.21-1.71,2.93-1.51,4.38.49,3.44,4.98,5.29,7.58,5.85,5.43,1.15,9.84-1.89,10.1-2.07,6.13-4.36,6.1-13.68,2.66-19.02-1.15-1.78-2.61-3.03-3.24-3.55-2.71-2.27-6.05-3.67-9.81-4.43-5.25-1.06-10.26-.95-14.84.68-1.5.53-4.42,1.76-6.94,3.95-8.17,7.08-9.36,21.84-2.26,31.25,3.8,5.05,9.2,7.51,12.23,8.89,1.6.73,6.92,3.03,14.36,3.53,2.97.21,8.82.55,15.56-1.83,4.7-1.65,7.7-3.88,8.42-4.42,3.42-2.61,5.25-5.28,6.41-6.95,2.71-3.94,4.46-8.37,5.27-13.17,1.1-6.51.56-12.35-1.42-17.6-.02-.07-.05-.15-.09-.25-.02-.03-.03-.06-.05-.1-.04-.1-.08-.22-.13-.34-.03-.08-.06-.15-.09-.22-.05-.12-.1-.24-.16-.38,0-.03-.02-.06-.03-.09-.07-.15-.14-.31-.21-.48-.04-.07-.08-.15-.11-.22-1.84-4.08-6.54-12.33-16.38-17.42-10.58-5.96-20.87-5.68-24.36-5.54-2.51.1-4.61.39-6.11.65,5.03-1.8,10.5-2.78,16.22-2.78,24.69,0,44.7,18.33,44.7,40.93s-20.01,40.93-44.7,40.93Z"/>
  </g>
</svg>